<?xml version="1.0" standalone="no"?>
<!DOCTYPE svg PUBLIC "-//W3C//DTD SVG 20010904//EN"
 "http://www.w3.org/TR/2001/REC-SVG-20010904/DTD/svg10.dtd">
<svg version="1.0" xmlns="http://www.w3.org/2000/svg"
 width="440.000000pt" height="440.000000pt" viewBox="0 0 440.000000 440.000000"
 preserveAspectRatio="xMidYMid meet">
<metadata>
Created by potrace 1.11, written by Peter Selinger 2001-2013
</metadata>
<g transform="translate(0.000000,440.000000) scale(0.100000,-0.100000)"
fill="#000000" stroke="none">
<path d="M1980 4389 c-364 -37 -750 -181 -1036 -385 -169 -121 -341 -281 -459
-429 -356 -443 -528 -1016 -475 -1580 39 -416 212 -845 469 -1165 76 -95 253
-271 351 -350 535 -427 1252 -581 1917 -409 620 159 1144 586 1428 1164 228
463 284 1010 154 1512 -159 620 -586 1144 -1164 1428 -358 177 -788 254 -1185
214z m-607 -791 c11 -16 -1 -28 -541 -548 l-233 -224 377 -377 c327 -327 376
-380 365 -393 -8 -9 -19 -16 -25 -16 -15 0 -789 775 -785 787 8 18 814 792
823 789 5 -1 14 -9 19 -18z m1032 -904 c24 -10 53 -73 66 -150 15 -84 6 -381
-16 -529 -8 -54 -13 -101 -11 -102 2 -2 31 45 65 105 33 60 71 117 83 128 21
19 21 19 14 -1 -4 -11 -37 -98 -72 -193 -72 -193 -92 -238 -123 -266 -20 -18
-23 -18 -38 -3 -33 32 -30 109 17 462 28 204 30 397 7 442 -35 67 -99 56 -182
-31 -47 -48 -80 -100 -149 -232 -81 -152 -218 -394 -280 -492 -12 -20 -31 -50
-40 -65 -28 -45 -29 -26 -2 54 54 166 169 416 236 515 80 118 267 319 325 348
31 17 72 20 100 10z m1091 -622 c209 -195 380 -357 382 -361 1 -4 -10 -14 -25
-22 -24 -12 -562 -455 -746 -613 -57 -49 -58 -49 -77 -30 -18 19 -12 24 371
344 214 178 389 327 389 330 0 6 -644 612 -698 657 -26 22 -26 23 -7 37 11 9
23 14 26 13 4 -1 177 -161 385 -355z"/>
</g>
</svg>
